<svg width="26" height="26" viewBox="0 0 26 26" fill="none" xmlns="http://www.w3.org/2000/svg">
<path d="M23.8333 18.135V5.05917C23.8333 3.75917 22.7716 2.795 21.4825 2.90333H21.4175C19.1425 3.09833 15.6866 4.2575 13.7583 5.47083L13.5741 5.59C13.26 5.785 12.74 5.785 12.4258 5.59L12.155 5.4275C10.2266 4.225 6.78163 3.07667 4.50663 2.8925C3.21746 2.78417 2.16663 3.75917 2.16663 5.04833V18.135C2.16663 19.175 3.01163 20.15 4.05163 20.28L4.36579 20.3233C6.71663 20.6375 10.3458 21.8292 12.4258 22.9667L12.4691 22.9883C12.7616 23.1508 13.2275 23.1508 13.5091 22.9883C15.5891 21.84 19.2291 20.6375 21.5908 20.3233L21.9483 20.28C22.9883 20.15 23.8333 19.175 23.8333 18.135Z" stroke="#535353" stroke-width="2" stroke-linecap="round" stroke-linejoin="round"/>
<path d="M13 5.94751V22.1975" stroke="#535353" stroke-width="2" stroke-linecap="round" stroke-linejoin="round"/>
<path d="M8.39587 9.19751H5.95837" stroke="#535353" stroke-width="2" stroke-linecap="round" stroke-linejoin="round"/>
<path d="M9.20837 12.4475H5.95837" stroke="#535353" stroke-width="2" stroke-linecap="round" stroke-linejoin="round"/>
</svg>
