<svg width="59" height="14" viewBox="0 0 59 14" fill="none" xmlns="http://www.w3.org/2000/svg">
<path d="M0 0H55C57.2091 0 59 1.79086 59 4V14H4C1.79086 14 0 12.2091 0 10V0Z" fill="#E50000"/>
<path d="M11.3203 6.62891V7.54297H8.35156V6.62891H11.3203ZM8.69922 4.3125V10H7.52734V4.3125H8.69922ZM12.1562 4.3125V10H10.9883V4.3125H12.1562ZM16.9922 9.08594V10H13.9648V9.08594H16.9922ZM14.3477 4.3125V10H13.1758V4.3125H14.3477ZM16.5977 6.62891V7.51953H13.9648V6.62891H16.5977ZM16.9883 4.3125V5.23047H13.9648V4.3125H16.9883ZM18.2109 4.3125H19.2031L20.6641 8.48828L22.125 4.3125H23.1172L21.0625 10H20.2656L18.2109 4.3125ZM17.6758 4.3125H18.6641L18.8438 8.38281V10H17.6758V4.3125ZM22.6641 4.3125H23.6562V10H22.4844V8.38281L22.6641 4.3125ZM27.0664 5.28516L25.5195 10H24.2734L26.3867 4.3125H27.1797L27.0664 5.28516ZM28.3516 10L26.8008 5.28516L26.6758 4.3125H27.4766L29.6016 10H28.3516ZM28.2812 7.88281V8.80078H25.2773V7.88281H28.2812ZM32.1875 4.3125V10H31.0195V4.3125H32.1875ZM33.9375 4.3125V5.23047H29.2969V4.3125H33.9375ZM39.0117 4.30078V10H37.8867V5.59766L36.5352 6.02734V5.14062L38.8906 4.30078H39.0117ZM44.7266 4.3125V4.91797L42.5273 10H41.3398L43.5391 5.19141H40.707V4.3125H44.7266ZM45.4414 5.70703V5.40625C45.4414 5.1901 45.4883 4.99349 45.582 4.81641C45.6758 4.63932 45.8138 4.4974 45.9961 4.39062C46.1784 4.28385 46.4023 4.23047 46.668 4.23047C46.9414 4.23047 47.1693 4.28385 47.3516 4.39062C47.5365 4.4974 47.6745 4.63932 47.7656 4.81641C47.8594 4.99349 47.9062 5.1901 47.9062 5.40625V5.70703C47.9062 5.91797 47.8594 6.11198 47.7656 6.28906C47.6745 6.46615 47.5378 6.60807 47.3555 6.71484C47.1732 6.82161 46.9479 6.875 46.6797 6.875C46.4089 6.875 46.181 6.82161 45.9961 6.71484C45.8138 6.60807 45.6758 6.46615 45.582 6.28906C45.4883 6.11198 45.4414 5.91797 45.4414 5.70703ZM46.1875 5.40625V5.70703C46.1875 5.79818 46.2044 5.88542 46.2383 5.96875C46.2747 6.04948 46.3294 6.11589 46.4023 6.16797C46.4779 6.21745 46.569 6.24219 46.6758 6.24219C46.7878 6.24219 46.8789 6.21745 46.9492 6.16797C47.0195 6.11589 47.0716 6.04948 47.1055 5.96875C47.1393 5.88542 47.1562 5.79818 47.1562 5.70703V5.40625C47.1562 5.3099 47.138 5.22135 47.1016 5.14062C47.0677 5.05729 47.0143 4.99089 46.9414 4.94141C46.8711 4.88932 46.7799 4.86328 46.668 4.86328C46.5638 4.86328 46.4753 4.88932 46.4023 4.94141C46.3294 4.99089 46.2747 5.05729 46.2383 5.14062C46.2044 5.22135 46.1875 5.3099 46.1875 5.40625ZM48.1602 8.90625V8.60547C48.1602 8.39193 48.207 8.19661 48.3008 8.01953C48.3971 7.84245 48.5365 7.70052 48.7188 7.59375C48.9036 7.48698 49.1302 7.43359 49.3984 7.43359C49.6693 7.43359 49.8958 7.48698 50.0781 7.59375C50.2604 7.70052 50.3984 7.84245 50.4922 8.01953C50.5859 8.19661 50.6328 8.39193 50.6328 8.60547V8.90625C50.6328 9.11979 50.5859 9.3151 50.4922 9.49219C50.401 9.66927 50.2643 9.8112 50.082 9.91797C49.8997 10.0247 49.6745 10.0781 49.4062 10.0781C49.1354 10.0781 48.9076 10.0247 48.7227 9.91797C48.5378 9.8112 48.3971 9.66927 48.3008 9.49219C48.207 9.3151 48.1602 9.11979 48.1602 8.90625ZM48.9102 8.60547V8.90625C48.9102 9 48.931 9.08854 48.9727 9.17188C49.0143 9.25521 49.0716 9.32161 49.1445 9.37109C49.2201 9.42057 49.3073 9.44531 49.4062 9.44531C49.5312 9.44531 49.6289 9.42057 49.6992 9.37109C49.7695 9.32161 49.8177 9.25521 49.8438 9.17188C49.8724 9.08854 49.8867 9 49.8867 8.90625V8.60547C49.8867 8.51172 49.8685 8.42448 49.832 8.34375C49.7956 8.26042 49.7409 8.19401 49.668 8.14453C49.5977 8.09245 49.5078 8.06641 49.3984 8.06641C49.2891 8.06641 49.1979 8.09245 49.125 8.14453C49.0547 8.19401 49.0013 8.26042 48.9648 8.34375C48.9284 8.42448 48.9102 8.51172 48.9102 8.60547ZM49.6758 5.125L46.8984 9.57031L46.3516 9.28125L49.1289 4.83594L49.6758 5.125Z" fill="white"/>
</svg>
