<svg width="490" height="48" viewBox="0 0 490 48" fill="none" xmlns="http://www.w3.org/2000/svg">
<path d="M24.7812 34.875C24.9688 33.7708 24.875 32.8438 24.5 32.0938C24.1458 31.3229 23.6042 30.6771 22.875 30.1562C22.1667 29.6146 21.3646 29.1562 20.4688 28.7812C19.5938 28.4062 18.7188 28.0625 17.8438 27.75C16.2396 27.125 14.6562 26.4167 13.0938 25.625C11.5521 24.8333 10.1458 23.8958 8.875 22.8125C7.60417 21.7083 6.61458 20.4271 5.90625 18.9688C5.19792 17.4896 4.90625 15.7604 5.03125 13.7812C5.17708 11.5312 5.8125 9.58333 6.9375 7.9375C8.0625 6.29167 9.48958 4.94792 11.2188 3.90625C12.9688 2.84375 14.8646 2.0625 16.9062 1.5625C18.9688 1.0625 20.9896 0.833333 22.9688 0.875C25.8021 0.916667 28.3229 1.51042 30.5312 2.65625C32.7396 3.78125 34.4688 5.38542 35.7188 7.46875C36.9896 9.53125 37.5833 12.0104 37.5 14.9062H28.4375C28.5208 13.5312 28.3438 12.3438 27.9062 11.3438C27.4896 10.3229 26.8125 9.54167 25.875 9C24.9583 8.4375 23.7812 8.13542 22.3438 8.09375C21.1146 8.07292 19.9062 8.27083 18.7188 8.6875C17.5521 9.08333 16.5417 9.70833 15.6875 10.5625C14.8542 11.3958 14.3333 12.4792 14.125 13.8125C13.9583 14.7917 14.0938 15.6354 14.5312 16.3438C14.9896 17.0521 15.6042 17.6562 16.375 18.1562C17.1667 18.6562 18 19.0833 18.875 19.4375C19.7708 19.7708 20.5729 20.0729 21.2812 20.3438C22.9688 20.9479 24.5938 21.6667 26.1562 22.5C27.7396 23.3333 29.1354 24.3229 30.3438 25.4688C31.5521 26.5938 32.4792 27.9271 33.125 29.4688C33.7708 30.9896 34.0312 32.7604 33.9062 34.7812C33.7188 37.0938 33.0938 39.0729 32.0312 40.7188C30.9688 42.3438 29.5938 43.6771 27.9062 44.7188C26.2188 45.7396 24.375 46.4896 22.375 46.9688C20.375 47.4479 18.3438 47.6771 16.2812 47.6562C14.0312 47.6146 11.9167 47.2604 9.9375 46.5938C7.95833 45.9271 6.22917 44.9688 4.75 43.7188C3.27083 42.4479 2.125 40.8958 1.3125 39.0625C0.520833 37.2083 0.15625 35.0938 0.21875 32.7188L9.375 32.75C9.29167 34.0208 9.38542 35.1354 9.65625 36.0938C9.94792 37.0312 10.4062 37.8229 11.0312 38.4688C11.6771 39.1146 12.4688 39.6042 13.4062 39.9375C14.3646 40.25 15.4792 40.4167 16.75 40.4375C17.9792 40.4375 19.1667 40.25 20.3125 39.875C21.4583 39.5 22.4375 38.9062 23.25 38.0938C24.0625 37.2604 24.5729 36.1875 24.7812 34.875ZM70.2188 1.5H79.3438L74.2188 31.5312C73.7396 34.9062 72.625 37.8125 70.875 40.25C69.1458 42.6667 66.9167 44.5208 64.1875 45.8125C61.4792 47.0833 58.4271 47.6979 55.0312 47.6562C51.8646 47.5938 49.1042 46.9062 46.75 45.5938C44.4167 44.2604 42.6667 42.4062 41.5 40.0312C40.3333 37.6354 39.9479 34.8125 40.3438 31.5625L45.4688 1.5H54.5938L49.5 31.5938C49.3125 33.1562 49.3646 34.5938 49.6562 35.9062C49.9688 37.1979 50.5938 38.25 51.5312 39.0625C52.4896 39.8542 53.8438 40.2708 55.5938 40.3125C57.4479 40.375 59.0312 40.0417 60.3438 39.3125C61.6562 38.5833 62.7083 37.5521 63.5 36.2188C64.2917 34.8646 64.8229 33.3125 65.0938 31.5625L70.2188 1.5ZM100.031 27.0312H88.2812L89.375 20.5938L98.4375 20.625C99.8125 20.625 101.125 20.4375 102.375 20.0625C103.646 19.6667 104.708 19.0312 105.562 18.1562C106.438 17.2604 106.99 16.0625 107.219 14.5625C107.406 13.1458 107.281 12.0312 106.844 11.2188C106.406 10.4062 105.708 9.82292 104.75 9.46875C103.812 9.09375 102.698 8.89583 101.406 8.875L94.6562 8.84375L88.0312 47H78.875L86.75 1.5L101.688 1.53125C103.646 1.55208 105.542 1.78125 107.375 2.21875C109.208 2.65625 110.833 3.34375 112.25 4.28125C113.667 5.21875 114.76 6.45833 115.531 8C116.323 9.54167 116.646 11.4375 116.5 13.6875C116.354 16.1458 115.646 18.1667 114.375 19.75C113.104 21.3125 111.479 22.4896 109.5 23.2812C107.542 24.0729 105.438 24.5312 103.188 24.6562L100.031 27.0312ZM96.3125 47H82.125L86.9375 39.6875L96.5938 39.7188C97.9688 39.7188 99.25 39.4896 100.438 39.0312C101.646 38.5521 102.656 37.8438 103.469 36.9062C104.281 35.9688 104.792 34.7708 105 33.3125C105.188 32.0833 105.135 31.0104 104.844 30.0938C104.552 29.1562 104.01 28.4375 103.219 27.9375C102.448 27.4167 101.417 27.125 100.125 27.0625L90.875 27.0312L92.0312 20.5938L102.656 20.625L104.219 23.125C106.26 23.2292 108.031 23.6979 109.531 24.5312C111.052 25.3438 112.208 26.5 113 28C113.792 29.5 114.115 31.3021 113.969 33.4062C113.76 36.6562 112.812 39.2812 111.125 41.2812C109.438 43.2812 107.281 44.7396 104.656 45.6562C102.052 46.5729 99.2708 47.0208 96.3125 47ZM143.594 34.875C143.781 33.7708 143.688 32.8438 143.312 32.0938C142.958 31.3229 142.417 30.6771 141.688 30.1562C140.979 29.6146 140.177 29.1562 139.281 28.7812C138.406 28.4062 137.531 28.0625 136.656 27.75C135.052 27.125 133.469 26.4167 131.906 25.625C130.365 24.8333 128.958 23.8958 127.688 22.8125C126.417 21.7083 125.427 20.4271 124.719 18.9688C124.01 17.4896 123.719 15.7604 123.844 13.7812C123.99 11.5312 124.625 9.58333 125.75 7.9375C126.875 6.29167 128.302 4.94792 130.031 3.90625C131.781 2.84375 133.677 2.0625 135.719 1.5625C137.781 1.0625 139.802 0.833333 141.781 0.875C144.615 0.916667 147.135 1.51042 149.344 2.65625C151.552 3.78125 153.281 5.38542 154.531 7.46875C155.802 9.53125 156.396 12.0104 156.312 14.9062H147.25C147.333 13.5312 147.156 12.3438 146.719 11.3438C146.302 10.3229 145.625 9.54167 144.688 9C143.771 8.4375 142.594 8.13542 141.156 8.09375C139.927 8.07292 138.719 8.27083 137.531 8.6875C136.365 9.08333 135.354 9.70833 134.5 10.5625C133.667 11.3958 133.146 12.4792 132.938 13.8125C132.771 14.7917 132.906 15.6354 133.344 16.3438C133.802 17.0521 134.417 17.6562 135.188 18.1562C135.979 18.6562 136.812 19.0833 137.688 19.4375C138.583 19.7708 139.385 20.0729 140.094 20.3438C141.781 20.9479 143.406 21.6667 144.969 22.5C146.552 23.3333 147.948 24.3229 149.156 25.4688C150.365 26.5938 151.292 27.9271 151.938 29.4688C152.583 30.9896 152.844 32.7604 152.719 34.7812C152.531 37.0938 151.906 39.0729 150.844 40.7188C149.781 42.3438 148.406 43.6771 146.719 44.7188C145.031 45.7396 143.188 46.4896 141.188 46.9688C139.188 47.4479 137.156 47.6771 135.094 47.6562C132.844 47.6146 130.729 47.2604 128.75 46.5938C126.771 45.9271 125.042 44.9688 123.562 43.7188C122.083 42.4479 120.938 40.8958 120.125 39.0625C119.333 37.2083 118.969 35.0938 119.031 32.7188L128.188 32.75C128.104 34.0208 128.198 35.1354 128.469 36.0938C128.76 37.0312 129.219 37.8229 129.844 38.4688C130.49 39.1146 131.281 39.6042 132.219 39.9375C133.177 40.25 134.292 40.4167 135.562 40.4375C136.792 40.4375 137.979 40.25 139.125 39.875C140.271 39.5 141.25 38.9062 142.062 38.0938C142.875 37.2604 143.385 36.1875 143.594 34.875ZM184.781 31.9375L193.719 31.8125C193.323 35.1667 192.188 38.0417 190.312 40.4375C188.458 42.8125 186.125 44.625 183.312 45.875C180.5 47.1042 177.448 47.6875 174.156 47.625C171.115 47.5625 168.552 46.9167 166.469 45.6875C164.385 44.4375 162.75 42.7708 161.562 40.6875C160.375 38.6042 159.594 36.2812 159.219 33.7188C158.844 31.1562 158.823 28.5312 159.156 25.8438L159.594 22.6875C160.01 19.8542 160.771 17.1146 161.875 14.4688C163 11.8229 164.469 9.46875 166.281 7.40625C168.094 5.34375 170.24 3.71875 172.719 2.53125C175.198 1.34375 178.01 0.78125 181.156 0.84375C184.448 0.90625 187.229 1.61458 189.5 2.96875C191.792 4.30208 193.552 6.16667 194.781 8.5625C196.031 10.9375 196.729 13.7188 196.875 16.9062L187.781 16.875C187.802 15.1875 187.594 13.7083 187.156 12.4375C186.74 11.1458 186.01 10.1458 184.969 9.4375C183.927 8.70833 182.49 8.3125 180.656 8.25C178.656 8.1875 176.958 8.58333 175.562 9.4375C174.167 10.2917 173.01 11.4375 172.094 12.875C171.198 14.3125 170.49 15.8854 169.969 17.5938C169.469 19.3021 169.094 20.9792 168.844 22.625L168.406 25.875C168.24 27.2292 168.125 28.7292 168.062 30.375C168 32 168.135 33.5521 168.469 35.0312C168.802 36.5104 169.448 37.7396 170.406 38.7188C171.365 39.6771 172.792 40.1875 174.688 40.25C176.562 40.3125 178.177 40.0208 179.531 39.375C180.906 38.7292 182.021 37.7708 182.875 36.5C183.75 35.2292 184.385 33.7083 184.781 31.9375ZM205.25 1.5L221.281 1.53125C224.052 1.57292 226.562 2.08333 228.812 3.0625C231.083 4.04167 232.844 5.51042 234.094 7.46875C235.365 9.42708 235.896 11.9167 235.688 14.9375C235.479 17.4167 234.875 19.5104 233.875 21.2188C232.896 22.9271 231.573 24.375 229.906 25.5625C228.26 26.75 226.365 27.7708 224.219 28.625L221.031 30.1562H206.219L207.469 22.8438L217.656 22.9062C219.177 22.8854 220.562 22.5938 221.812 22.0312C223.062 21.4688 224.094 20.6562 224.906 19.5938C225.74 18.5104 226.26 17.1979 226.469 15.6562C226.656 14.3021 226.562 13.125 226.188 12.125C225.833 11.125 225.219 10.3438 224.344 9.78125C223.469 9.21875 222.354 8.91667 221 8.875L213.156 8.84375L206.531 47H197.375L205.25 1.5ZM222.281 47L215.719 26.7188L224.938 26.6562L232.031 46.5V47H222.281ZM254.812 1.5L246.938 47H237.781L245.688 1.5H254.812ZM276.531 27.0312H264.781L265.875 20.5938L274.938 20.625C276.312 20.625 277.625 20.4375 278.875 20.0625C280.146 19.6667 281.208 19.0312 282.062 18.1562C282.938 17.2604 283.49 16.0625 283.719 14.5625C283.906 13.1458 283.781 12.0312 283.344 11.2188C282.906 10.4062 282.208 9.82292 281.25 9.46875C280.312 9.09375 279.198 8.89583 277.906 8.875L271.156 8.84375L264.531 47H255.375L263.25 1.5L278.188 1.53125C280.146 1.55208 282.042 1.78125 283.875 2.21875C285.708 2.65625 287.333 3.34375 288.75 4.28125C290.167 5.21875 291.26 6.45833 292.031 8C292.823 9.54167 293.146 11.4375 293 13.6875C292.854 16.1458 292.146 18.1667 290.875 19.75C289.604 21.3125 287.979 22.4896 286 23.2812C284.042 24.0729 281.938 24.5312 279.688 24.6562L276.531 27.0312ZM272.812 47H258.625L263.438 39.6875L273.094 39.7188C274.469 39.7188 275.75 39.4896 276.938 39.0312C278.146 38.5521 279.156 37.8438 279.969 36.9062C280.781 35.9688 281.292 34.7708 281.5 33.3125C281.688 32.0833 281.635 31.0104 281.344 30.0938C281.052 29.1562 280.51 28.4375 279.719 27.9375C278.948 27.4167 277.917 27.125 276.625 27.0625L267.375 27.0312L268.531 20.5938L279.156 20.625L280.719 23.125C282.76 23.2292 284.531 23.6979 286.031 24.5312C287.552 25.3438 288.708 26.5 289.5 28C290.292 29.5 290.615 31.3021 290.469 33.4062C290.26 36.6562 289.312 39.2812 287.625 41.2812C285.938 43.2812 283.781 44.7396 281.156 45.6562C278.552 46.5729 275.771 47.0208 272.812 47ZM325.969 39.6875L324.688 47H301.156L302.406 39.6875H325.969ZM312.062 1.5L304.156 47H295L302.875 1.5H312.062ZM326.312 20.0312L325.062 27.1562H304.594L305.844 20.0312H326.312ZM332.531 1.5L331.25 8.84375H307.75L309.062 1.5H332.531ZM389.562 1.5L381.656 47H372.781L360.188 16.1562L354.844 47H345.688L353.562 1.5H362.469L375.094 32.375L380.438 1.5H389.562ZM429.875 23.0312L429.625 25.2188C429.208 28.1354 428.427 30.9479 427.281 33.6562C426.135 36.3646 424.635 38.7812 422.781 40.9062C420.927 43.0104 418.719 44.6771 416.156 45.9062C413.615 47.1146 410.729 47.6875 407.5 47.625C404.417 47.5625 401.802 46.8958 399.656 45.625C397.531 44.3333 395.844 42.625 394.594 40.5C393.365 38.375 392.542 36.0104 392.125 33.4062C391.708 30.7812 391.667 28.0938 392 25.3438L392.25 23.1875C392.667 20.2708 393.448 17.4688 394.594 14.7812C395.76 12.0938 397.271 9.69792 399.125 7.59375C401 5.46875 403.208 3.80208 405.75 2.59375C408.312 1.38542 411.188 0.8125 414.375 0.875C417.458 0.916667 420.062 1.58333 422.188 2.875C424.333 4.14583 426.021 5.84375 427.25 7.96875C428.5 10.0729 429.333 12.4375 429.75 15.0625C430.167 17.6667 430.208 20.3229 429.875 23.0312ZM420.344 25.3438L420.656 23.0938C420.823 21.6771 420.906 20.1458 420.906 18.5C420.927 16.8333 420.74 15.2396 420.344 13.7188C419.948 12.1771 419.24 10.9167 418.219 9.9375C417.219 8.9375 415.771 8.39583 413.875 8.3125C411.833 8.25 410.083 8.65625 408.625 9.53125C407.188 10.4062 405.979 11.5938 405 13.0938C404.042 14.5729 403.281 16.1979 402.719 17.9688C402.177 19.7188 401.781 21.4375 401.531 23.125L401.25 25.375C401.062 26.7708 400.958 28.3125 400.938 30C400.938 31.6667 401.135 33.2708 401.531 34.8125C401.927 36.3333 402.635 37.5938 403.656 38.5938C404.677 39.5938 406.135 40.1354 408.031 40.2188C410.052 40.2812 411.781 39.8646 413.219 38.9688C414.677 38.0729 415.896 36.8854 416.875 35.4062C417.854 33.9062 418.625 32.2812 419.188 30.5312C419.75 28.7604 420.135 27.0312 420.344 25.3438ZM444.469 39.3438L459.062 1.5H463.938L464.25 8.25L448.875 47H443.562L444.469 39.3438ZM445.875 1.5L447.188 40.1875L445.625 47H439.656L436.969 1.5H445.875ZM467.031 39.2188L480.062 1.5H489.312L472.406 47H466.5L467.031 39.2188ZM466.812 1.5L469.719 40.375L468.531 47H463.188L459.844 7.46875L461.812 1.5H466.812Z" fill="white"/>
</svg>
